<?xml version="1.0" encoding="UTF-8" standalone="no"?>
<!-- DOCTYPE svg PUBLIC "-//W3C//DTD SVG 1.1//EN" "http://www.w3.org/Graphics/SVG/1.1/DTD/svg11.dtd" -->

<svg
   xmlns:dc="http://purl.org/dc/elements/1.1/"
   xmlns:cc="http://creativecommons.org/ns#"
   xmlns:rdf="http://www.w3.org/1999/02/22-rdf-syntax-ns#"
   xmlns:svg="http://www.w3.org/2000/svg"
   xmlns="http://www.w3.org/2000/svg"
   xmlns:sodipodi="http://sodipodi.sourceforge.net/DTD/sodipodi-0.dtd"
   xmlns:inkscape="http://www.inkscape.org/namespaces/inkscape"
   viewBox="0,0,1024,1102"
   preserveAspectRatio="xMidYMid"
   zoomAndPan="magnify"
   version="1.1"
   id="svg32769"
   sodipodi:docname="Logo Bilbao Makers Solo.svg"
   inkscape:version="0.92.4 (5da689c313, 2019-01-14)">
  <metadata
     id="metadata32775">
    <rdf:RDF>
      <cc:Work
         rdf:about="">
        <dc:format>image/svg+xml</dc:format>
        <dc:type
           rdf:resource="http://purl.org/dc/dcmitype/StillImage" />
      </cc:Work>
    </rdf:RDF>
  </metadata>
  <defs
     id="defs32773" />
  <sodipodi:namedview
     pagecolor="#ffffff"
     bordercolor="#666666"
     borderopacity="1"
     objecttolerance="10"
     gridtolerance="10"
     guidetolerance="10"
     inkscape:pageopacity="0"
     inkscape:pageshadow="2"
     inkscape:window-width="2048"
     inkscape:window-height="1089"
     id="namedview32771"
     showgrid="false"
     inkscape:zoom="1.2114497"
     inkscape:cx="445.41511"
     inkscape:cy="1009.3532"
     inkscape:window-x="-8"
     inkscape:window-y="-8"
     inkscape:window-maximized="1"
     inkscape:current-layer="svg32769" />
  <path
     id="line32659"
     style="color:#000000;font-style:normal;font-variant:normal;font-weight:normal;font-stretch:normal;font-size:medium;line-height:normal;font-family:sans-serif;font-variant-ligatures:normal;font-variant-position:normal;font-variant-caps:normal;font-variant-numeric:normal;font-variant-alternates:normal;font-feature-settings:normal;text-indent:0;text-align:start;text-decoration:none;text-decoration-line:none;text-decoration-style:solid;text-decoration-color:#000000;letter-spacing:normal;word-spacing:normal;text-transform:none;writing-mode:lr-tb;direction:ltr;text-orientation:mixed;dominant-baseline:auto;baseline-shift:baseline;text-anchor:start;white-space:normal;shape-padding:0;clip-rule:nonzero;display:inline;overflow:visible;visibility:visible;opacity:1;isolation:auto;mix-blend-mode:normal;color-interpolation:sRGB;color-interpolation-filters:linearRGB;solid-color:#000000;solid-opacity:1;vector-effect:none;fill:none;fill-opacity:1;fill-rule:nonzero;stroke:#ff0000;stroke-width:3;stroke-linecap:butt;stroke-linejoin:miter;stroke-miterlimit:4;stroke-dasharray:none;stroke-dashoffset:0;stroke-opacity:1;color-rendering:auto;image-rendering:auto;shape-rendering:auto;text-rendering:auto;enable-background:accumulate"
     d="M 764.66992,-0.20703125 430.91992,225.05859 V 0 h -0.25 L 430.49414,-0.17773438 210.57617,215.7832 h -0.002 c -28.87683,28.35874 -45.1447,67.13407 -45.14453,107.60742 h -0.002 v 140.73047 h 0.25 v 0.25 h 72.2793 v -0.25 h 0.25 V 323.39062 h -0.33008 l 0.33399,-0.004 c -0.49104,-43.44547 34.58499,-78.92188 78.0332,-78.92188 43.44821,0 78.52619,35.47641 78.03516,78.92188 l 0.33398,0.004 h -0.33398 v 140.73047 h 0.25 v 0.25 h 72.27929 v -0.25 h 0.25 V 357.96484 h -0.5 V 463.87109 H 394.7793 V 323.39258 c 0.49411,-43.71767 -34.81473,-79.42774 -78.53516,-79.42774 -43.71978,0 -79.02624,35.70902 -78.5332,79.42578 h -0.004 v 140.48047 h -71.7793 V 323.39062 h 0.002 c -1.6e-4,-40.3389 16.21351,-78.98522 44.99414,-107.25 0,0 0.002,-0.002 0.002,-0.002 L 430.41992,0.59570312 V 225.5293 h 0.25 l 0.14063,0.20703 333.75,-225.26758 v 463.40234 h -71.7793 V 357.96484 h -0.5 v 106.15625 h 0.25 v 0.25 h 72.2793 v -0.25 h 0.25 V 0 h -0.25196 z m -185,245.05664125 c -62.46596,0 -113.10937,50.64532 -113.10937,113.11133 h 0.5 c 0,-62.19579 50.41363,-112.61133 112.60937,-112.61133 62.19575,0 112.60938,50.41554 112.60938,112.61133 h 0.5 c 0,-62.46601 -50.64341,-113.11133 -113.10938,-113.11133 z" />
  <path
     d="M832.59,658.01 Q832.59,697.27 847.12,723.61 T888.08,749.94 Q918.01,749.94 933.71,725.79 T949.40,658.01 Q949.40,569.82 888.08,569.82 Q860.92,569.82 846.76,593.51 T832.59,658.01"
     fill="none"
     stroke="red"
     stroke-width="0.50"
     id="path32689"
     style="fill:none;fill-opacity:1" />
  <path
     d="M801.91,658.01 Q801.91,608.47 825.20,575.13 T888.08,541.79 Q932.62,541.79 956.36,572.48 T980.09,658.01 Q980.09,714.25 956.28,746.11 T888.08,777.97 Q847.62,777.97 824.76,744.32 T801.91,658.01"
     fill="none"
     stroke="red"
     stroke-width="0.50"
     id="path32691"
     style="fill:none;fill-opacity:1" />
  <path
     style="fill:#ff0000;fill-opacity:1"
     d="M 701.36914 542.69922 L 614.57031 773.99023 L 647.28906 773.99023 L 663.05078 725.89062 L 742.56055 725.89062 L 757.32031 773.99023 L 789.69922 773.99023 L 709.16992 542.69922 L 701.36914 542.69922 z M 703.83008 602.55078 L 734.24023 702.91992 L 670.78906 702.91992 L 703.83008 602.55078 z "
     id="polyline32693" />
  <polyline
     points="527.59,773.99,466.56,773.99,466.56,545.81"
     fill="none"
     stroke="red"
     stroke-width="0.50"
     id="polyline32697" />
  <path
     d="M466.56,545.81 Q505.53,543.78 522.74,543.78 Q554.41,543.78 571.77,558.34 T589.14,600.00 Q589.14,615.89 578.05,628.97 T553.54,645.32 Q578.96,651.86 590.58,666.97 T602.19,708.10 Q602.19,738.16 581.54,756.07 T527.59,773.99"
     fill="none"
     stroke="red"
     stroke-width="0.50"
     id="path32699" />
  <polyline
     points="495.72,570.73,495.72,636.34"
     fill="none"
     stroke="red"
     stroke-width="0.50"
     id="polyline32701" />
  <path
     d="M495.72,636.34 Q504.92,637.28 518.51,637.28 Q559.98,637.28 559.98,601.27 Q559.98,569.64 521.86,569.64 Q507.26,569.64 495.72,570.73"
     fill="none"
     stroke="red"
     stroke-width="0.50"
     id="path32703" />
  <polyline
     points="495.72,660.48,495.72,747.48"
     fill="none"
     stroke="red"
     stroke-width="0.50"
     id="polyline32705" />
  <path
     d="M495.72,747.48 Q510.77,749.03 518.79,749.03 Q546.25,749.03 558.88,738.06 T571.51,703.12 Q571.51,680.87 559.46,670.28 T519.23,659.70"
     fill="none"
     stroke="red"
     stroke-width="0.50"
     id="path32707" />
  <polyline
     points="519.23,659.70,495.72,660.48"
     fill="none"
     stroke="red"
     stroke-width="0.50"
     id="polyline32709" />
  <polyline
     points="315.17,773.99,315.17,545.77,344.33,545.77,344.33,745.96,440.96,745.96,440.96,773.99,315.17,773.99"
     fill="none"
     stroke="red"
     stroke-width="0.50"
     id="polyline32711" />
  <polyline
     points="237.01,773.99,237.01,545.77,266.17,545.77,266.17,773.99,237.01,773.99"
     fill="none"
     stroke="red"
     stroke-width="0.50"
     id="polyline32713" />
  <polyline
     points="91.89,660.48,91.89,747.48"
     fill="none"
     stroke="red"
     stroke-width="0.50"
     id="polyline32715" />
  <path
     d="M91.89,747.48 Q106.93,749.03 114.96,749.03 Q142.41,749.03 155.04,738.06 T167.67,703.12 Q167.67,680.87 155.63,670.28 T115.40,659.70"
     fill="none"
     stroke="red"
     stroke-width="0.50"
     id="path32717" />
  <polyline
     points="115.40,659.70,91.89,660.48"
     fill="none"
     stroke="red"
     stroke-width="0.50"
     id="polyline32719" />
  <polyline
     points="91.89,570.73,91.89,636.34"
     fill="none"
     stroke="red"
     stroke-width="0.50"
     id="polyline32721" />
  <path
     d="M91.89,636.34 Q101.09,637.28 114.67,637.28 Q156.14,637.28 156.14,601.27 Q156.14,569.64 118.03,569.64 Q103.43,569.64 91.89,570.73"
     fill="none"
     stroke="red"
     stroke-width="0.50"
     id="path32723" />
  <polyline
     points="123.75,773.99,62.73,773.99,62.73,545.81"
     fill="none"
     stroke="red"
     stroke-width="0.50"
     id="polyline32725" />
  <path
     d="M62.73,545.81 Q101.69,543.78 118.91,543.78 Q150.57,543.78 167.94,558.34 T185.30,600.00 Q185.30,615.89 174.21,628.97 T149.70,645.32 Q175.13,651.86 186.74,666.97 T198.36,708.10 Q198.36,738.16 177.70,756.07 T123.75,773.99"
     fill="none"
     stroke="red"
     stroke-width="0.50"
     id="path32727" />
  <polyline
     points="179.88,1097.80,154.36,951.14,107.83,1100.87,100.54,1100.87,52.47,951.14,27.80,1097.80,0.00,1097.80,40.01,869.58,53.23,869.58,104.18,1036.13,151.06,869.58,164.28,869.58,207.68,1097.80,179.88,1097.80"
     fill="none"
     stroke="red"
     stroke-width="0.50"
     id="polyline32729" />
  <polyline
     points="299.15,926.36,266.10,1026.73,329.55,1026.73,299.15,926.36"
     fill="none"
     stroke="red"
     stroke-width="0.50"
     id="polyline32731" />
  <polyline
     points="352.64,1097.80,337.88,1049.70,258.37,1049.70,242.61,1097.80,209.89,1097.80,296.69,866.51,304.49,866.51,385.02,1097.80,352.64,1097.80"
     fill="none"
     stroke="red"
     stroke-width="0.50"
     id="polyline32733" />
  <polyline
     points="525.56,1097.80,465.09,992.80,436.56,1035.96,436.56,1097.80,407.40,1097.80,407.40,869.58,436.56,869.58,436.56,993.72,516.24,869.58,548.79,869.58,484.70,968.50,557.77,1097.80,525.56,1097.80"
     fill="none"
     stroke="red"
     stroke-width="0.50"
     id="polyline32735" />
  <polyline
     points="608.81,897.61,608.81,961.09,677.98,961.09,677.98,987.49,608.81,987.49,608.81,1069.77,705.95,1069.77,705.95,1097.80,579.65,1097.80,579.65,869.58,705.95,869.58,705.95,897.61,608.81,897.61"
     fill="none"
     stroke="red"
     stroke-width="0.50"
     id="polyline32737" />
  <polyline
     points="770.54,897.54,770.54,971.83"
     fill="none"
     stroke="red"
     stroke-width="0.50"
     id="polyline32739" />
  <path
     d="M770.54,971.83 Q781.06,973.38 790.99,973.38 Q817.28,973.38 829.26,964.33 T841.24,932.03 Q841.24,912.84 828.39,904.41 T787.78,895.98 Q783.40,895.98 770.54,897.54"
     fill="none"
     stroke="red"
     stroke-width="0.50"
     id="path32741" />
  <polyline
     points="858.70,1097.80,801.51,999.78"
     fill="none"
     stroke="red"
     stroke-width="0.50"
     id="polyline32743" />
  <path
     d="M801.51,999.78 Q791.72,999.78 770.54,998.23"
     fill="none"
     stroke="red"
     stroke-width="0.50"
     id="path32745" />
  <polyline
     points="770.54,998.23,770.54,1097.80,741.38,1097.80,741.38,869.57"
     fill="none"
     stroke="red"
     stroke-width="0.50"
     id="polyline32747" />
  <path
     d="M741.38,869.57 Q742.99,869.57 764.09,868.40 T794.83,867.23 Q871.93,867.23 871.93,932.65 Q871.93,954.15 859.51,971.36 T830.00,992.78"
     fill="none"
     stroke="red"
     stroke-width="0.50"
     id="path32749" />
  <polyline
     points="830.00,992.78,892.10,1097.80,858.70,1097.80"
     fill="none"
     stroke="red"
     stroke-width="0.50"
     id="polyline32751" />
  <polyline
     points="904.31,1087.43,914.97,1058.74"
     fill="none"
     stroke="red"
     stroke-width="0.50"
     id="polyline32753" />
  <path
     d="M914.97,1058.74 Q923.15,1065.15 935.35,1069.45 T957.18,1073.75 Q974.27,1073.75 984.64,1063.78 T995.01,1038.38 Q995.01,1026.85 989.25,1016.96 T960.28,995.39"
     fill="none"
     stroke="red"
     stroke-width="0.50"
     id="path32755" />
  <polyline
     points="960.28,995.39,943.06,986.82"
     fill="none"
     stroke="red"
     stroke-width="0.50"
     id="polyline32757" />
  <path
     d="M943.06,986.82 Q921.17,975.91 912.48,960.96 T903.80,924.98 Q903.80,899.43 920.72,882.61 T964.19,865.78 Q999.63,865.78 1013.49,878.09"
     fill="none"
     stroke="red"
     stroke-width="0.50"
     id="path32759" />
  <polyline
     points="1013.49,878.09,1004.88,905.21"
     fill="none"
     stroke="red"
     stroke-width="0.50"
     id="polyline32761" />
  <path
     d="M1004.88,905.21 Q999.05,900.66 987.08,896.42 T964.91,892.19 Q950.03,892.19 941.49,901.23 T932.96,924.47 Q932.96,933.20 936.02,940.37 T944.56,952.38 T966.95,965.95"
     fill="none"
     stroke="red"
     stroke-width="0.50"
     id="path32763" />
  <polyline
     points="966.95,965.95,984.46,974.82"
     fill="none"
     stroke="red"
     stroke-width="0.50"
     id="polyline32765" />
  <path
     d="M984.46,974.82 Q1006.35,985.88 1015.17,1001.23 T1024.00,1040.25 Q1024.00,1065.95 1004.66,1083.86 T952.91,1101.78 Q924.45,1101.78 904.31,1087.43"
     fill="none"
     stroke="red"
     stroke-width="0.50"
     id="path32767" />
  <path
     style="opacity:1;fill:none;fill-opacity:1;fill-rule:nonzero;stroke:#ff0000;stroke-width:2.47637177;stroke-linecap:square;stroke-linejoin:round;stroke-miterlimit:4;stroke-dasharray:none;stroke-opacity:1;paint-order:fill markers stroke"
     d="m 167.81209,384.98245 c 0.28387,-65.84838 0.52254,-78.04767 1.65129,-84.40301 4.53215,-25.51802 13.74201,-46.98393 28.68688,-66.86204 6.56181,-8.72782 19.74102,-21.89769 140.28559,-140.186069 l 89.56212,-87.88581 0.41272,111.146839 c 0.36438,98.1244 0.55781,111.13483 1.65092,111.04435 0.681,-0.0564 75.59123,-50.29575 166.46719,-111.64309 C 687.40475,54.846283 761.9745,4.6530081 762.23935,4.6530081 c 0.26484,0 0.48154,102.8932519 0.48154,228.6516719 V 461.95634 H 728.87714 695.0334 l -0.002,-50.55926 c -8.2e-4,-27.80759 -0.37526,-55.45214 -0.83147,-61.43233 -2.96442,-38.85434 -23.77741,-72.14301 -57.36161,-91.74462 -21.40088,-12.49075 -49.44262,-17.67023 -74.70389,-13.79826 -50.62449,7.75954 -90.1431,48.56073 -96.55386,99.6875 -0.50755,4.04781 -0.8501,29.15686 -0.8501,62.31332 v 55.53365 h -33.84374 -33.84375 l -0.0131,-67.89386 c -0.0136,-70.52166 -0.44897,-82.72675 -3.31806,-93.01478 -7.73505,-27.73642 -30.18374,-49.45617 -58.57819,-56.67609 -9.48518,-2.41181 -30.24105,-2.24327 -39.11349,0.31762 -28.69834,8.28332 -48.31381,27.45811 -57.20495,55.9198 l -2.31153,7.39953 -0.24071,76.97389 -0.24071,76.97389 h -34.27119 -34.27118 z"
     id="path37080"
     inkscape:connector-curvature="0" />
  <path
     style="opacity:1;fill:#ff0000;fill-opacity:1;fill-rule:nonzero;stroke:#ff0000;stroke-width:2.47637177;stroke-linecap:square;stroke-linejoin:round;stroke-miterlimit:4;stroke-dasharray:none;stroke-opacity:1;paint-order:fill markers stroke"
     d="m 169.27674,406.85707 c 0.0328,-29.3966 0.36772,-65.33495 0.74426,-79.86299 0.66463,-25.64377 0.75897,-26.71003 3.23241,-36.53643 6.17944,-24.54943 16.52247,-44.84411 31.6725,-62.14653 6.27106,-7.162 70.7533,-71.03078 166.94096,-165.352754 L 426.34705,9.5349001 426.84743,117.08613 c 0.27521,59.15319 0.7798,108.57275 1.12131,109.82125 0.34151,1.24851 1.13949,2.27001 1.77329,2.27001 1.57692,0 18.56273,-11.21112 96.89808,-63.95555 C 627.47076,97.330993 731.64885,27.077475 747.29856,16.41866 c 7.63478,-5.199943 13.94953,-9.3244171 14.03277,-9.1654971 0.0833,0.1589201 0.0465,102.1606971 -0.0818,226.6706071 l -0.23323,226.38166 h -32.16599 -32.166 l -0.0282,-44.36833 c -0.0486,-76.35673 -1.2211,-86.1249 -13.25217,-110.40491 -6.04523,-12.19996 -13.12415,-21.78051 -23.21717,-31.42197 -17.14908,-16.38184 -36.32949,-26.21526 -59.66818,-30.59071 -11.20492,-2.10065 -32.57254,-2.11497 -42.51105,-0.0285 -47.62659,9.99872 -82.06197,44.10335 -92.6475,91.75762 -1.54093,6.93703 -1.67696,11.32484 -2.05359,66.24295 l -0.40335,58.81383 h -32.01956 -32.01955 l -0.38992,-72.02115 c -0.32755,-60.50018 -0.5991,-73.28931 -1.6975,-79.94882 -3.7394,-22.67173 -17.17951,-42.39025 -37.83485,-55.50901 -14.78216,-9.38855 -31.91326,-13.12096 -51.75011,-11.27495 -10.89612,1.01398 -18.6056,3.33476 -28.99041,8.72694 -19.84097,10.30218 -32.36722,25.38056 -40.68234,48.97106 l -2.50546,7.10814 -0.38124,76.9739 -0.38125,76.97389 h -32.51688 -32.51687 z"
     id="path37082"
     inkscape:connector-curvature="0" />
  <path
     style="opacity:1;fill:#ff0000;fill-opacity:1;fill-rule:nonzero;stroke:#ff0000;stroke-width:2.47637177;stroke-linecap:square;stroke-linejoin:round;stroke-miterlimit:4;stroke-dasharray:none;stroke-opacity:1;paint-order:fill markers stroke"
     d="m 873.61412,776.05978 c -31.21764,-5.66475 -54.042,-29.90055 -64.92753,-68.94263 -8.5477,-30.65721 -8.07554,-71.0214 1.16141,-99.28757 11.45008,-35.0386 33.61626,-57.77789 62.21962,-63.82832 6.76538,-1.43106 24.84724,-1.63715 32.70525,-0.37276 18.98927,3.05549 34.42968,11.01842 46.36313,23.91043 14.69302,15.87324 23.68693,37.96652 27.08162,66.52526 1.22447,10.30113 1.22512,38.80224 8.2e-4,48.70197 -5.93778,48.02473 -26.32472,78.73054 -59.71453,89.93913 -12.8341,4.30826 -31.81676,5.72678 -44.89008,3.35449 z m 21.98383,-26.06504 c 25.15634,-3.15434 41.06801,-19.07677 49.51106,-49.54456 3.46844,-12.51626 4.55091,-23.09912 4.46842,-43.68592 -0.0853,-21.27709 -1.38755,-31.64122 -5.70684,-45.41689 -6.68037,-21.30593 -19.78445,-34.9917 -38.41706,-40.12241 -7.69244,-2.1182 -25.90004,-2.11877 -32.12136,-10e-4 -13.53546,4.60754 -22.74693,13.02051 -29.64191,27.07238 -7.3807,15.04175 -10.59242,29.92986 -11.36644,52.68972 -0.97667,28.71853 3.27916,51.41147 13.26043,70.70743 9.64749,18.65068 22.90032,27.95953 41.38962,29.07224 0.91991,0.0554 4.80076,-0.29158 8.62408,-0.77099 z"
     id="path37084"
     inkscape:connector-curvature="0" />
  <path
     style="opacity:1;fill:#ff0000;fill-opacity:1;fill-rule:nonzero;stroke:#ff0000;stroke-width:2.47637177;stroke-linecap:square;stroke-linejoin:round;stroke-miterlimit:4;stroke-dasharray:none;stroke-opacity:1;paint-order:fill markers stroke"
     d="M 467.20719,659.79281 V 546.32873 l 13.82641,-0.70477 c 7.60452,-0.38763 23.85571,-0.6878 36.11375,-0.66705 21.36366,0.0362 22.61502,0.12669 30.19354,2.18424 25.89562,7.03062 39.2985,22.93773 40.89778,48.53927 0.87391,13.98962 -2.9656,24.40914 -12.89658,34.99823 -6.0617,6.46339 -13.02646,11.32975 -18.54888,12.96033 -2.05615,0.60711 -3.73847,1.32108 -3.73847,1.58661 0,0.26552 2.69306,1.34084 5.98457,2.38958 25.98512,8.27942 38.70662,23.46264 41.90102,50.00923 1.78063,14.7976 -0.16018,27.81473 -5.96011,39.97485 -2.75056,5.76681 -4.60771,8.23738 -10.85898,14.4457 -10.21659,10.1464 -18.05093,14.57156 -33.34298,18.83349 -6.04438,1.68458 -8.48275,1.79732 -44.98095,2.0798 l -38.59012,0.29866 z m 63.52451,89.01577 c 21.23158,-1.59295 34.54232,-11.26987 39.32898,-28.59221 1.94123,-7.02507 2.38495,-22.30111 0.85592,-29.46659 -3.46554,-16.24043 -11.69916,-24.70868 -28.33365,-29.14108 -7.36226,-1.96172 -28.16427,-2.98926 -40.20736,-1.98607 l -7.10286,0.59166 v 44.00843 44.00843 l 8.87367,0.53008 c 4.88052,0.29154 9.98803,0.62889 11.35004,0.74966 2.47575,0.21952 3.70181,0.163 15.23526,-0.70231 z m 6.7696,-113.40462 c 14.57378,-4.69857 21.90339,-14.84306 22.77566,-31.5225 0.97183,-18.58301 -7.21301,-29.77354 -24.44863,-33.4268 -5.7133,-1.211 -28.20393,-1.61707 -36.22195,-0.65399 l -4.33365,0.52053 v 33.26622 33.26621 l 3.09547,0.37128 c 1.7025,0.2042 9.9674,0.27669 18.36642,0.16107 12.98066,-0.17868 16.0952,-0.47594 20.76668,-1.98202 z"
     id="path37086"
     inkscape:connector-curvature="0" />
  <path
     style="opacity:1;fill:#ff0000;fill-opacity:1;fill-rule:nonzero;stroke:#ff0000;stroke-width:2.47637177;stroke-linecap:square;stroke-linejoin:round;stroke-miterlimit:4;stroke-dasharray:none;stroke-opacity:1;paint-order:fill markers stroke"
     d="M 316.1485,659.65336 V 546.15298 h 13.62005 13.62004 V 646.44604 746.7391 h 48.28925 48.28926 v 13.20732 13.20732 h -61.9093 -61.9093 z"
     id="path37088"
     inkscape:connector-curvature="0" />
  <path
     style="opacity:1;fill:#ff0000;fill-opacity:1;fill-rule:nonzero;stroke:#ff0000;stroke-width:2.47637177;stroke-linecap:square;stroke-linejoin:round;stroke-miterlimit:4;stroke-dasharray:none;stroke-opacity:1;paint-order:fill markers stroke"
     d="M 237.73006,659.65336 V 546.15298 h 14.03278 14.03277 v 113.50038 113.50038 h -14.03277 -14.03278 z"
     id="path37090"
     inkscape:connector-curvature="0" />
  <path
     style="opacity:1;fill:#ff0000;fill-opacity:1;fill-rule:nonzero;stroke:#ff0000;stroke-width:2.47637177;stroke-linecap:square;stroke-linejoin:round;stroke-miterlimit:4;stroke-dasharray:none;stroke-opacity:1;paint-order:fill markers stroke"
     d="m 63.558575,659.74123 v -113.4125 l 13.82641,-0.70697 c 7.604525,-0.38883 23.669985,-0.70357 35.701025,-0.69943 20.02938,0.007 22.5013,0.16622 29.30374,1.8888 10.87366,2.75354 20.00432,7.46267 26.64057,13.73987 10.64342,10.06754 15.14463,21.13858 15.28959,37.60579 0.0694,7.8913 -0.23282,10.39793 -1.79181,14.85823 -4.08862,11.69759 -14.4137,23.41298 -25.18306,28.57406 -3.20578,1.53632 -6.30349,2.79332 -6.8838,2.79332 -0.5803,0 -1.05511,0.33528 -1.05511,0.74506 0,0.40978 2.69306,1.55603 5.98457,2.54721 3.29151,0.99119 9.30734,3.53469 13.36852,5.65224 13.66065,7.12283 22.61973,18.33274 26.44217,33.08533 3.05131,11.77644 3.01968,30.66957 -0.0692,41.34135 -5.30522,18.32897 -19.93679,33.19325 -39.81446,40.44771 -12.07505,4.40685 -18.26548,4.94545 -56.88358,4.94912 l -34.875595,0.003 z m 67.566145,88.54926 c 19.72988,-2.83893 30.84072,-11.95125 35.37308,-29.01051 1.74457,-6.56636 1.94407,-23.92723 0.34846,-30.32289 -1.66274,-6.66472 -6.46481,-15.34238 -10.34178,-18.68829 -8.39258,-7.24298 -18.45056,-10.1566 -37.27557,-10.7981 -7.29044,-0.24844 -16.48397,-0.18277 -20.430066,0.14594 l -7.174721,0.59765 v 44.00843 44.00843 l 8.873667,0.53008 c 4.88051,0.29154 9.98803,0.614 11.35004,0.71658 3.95215,0.29764 12.70231,-0.2413 19.27689,-1.18732 z m -2.8957,-111.69957 c 15.56569,-2.97821 24.44904,-11.11396 27.41513,-25.10796 4.53958,-21.41766 -4.35607,-36.97822 -23.45377,-41.02608 -5.72389,-1.2132 -28.20555,-1.62037 -36.232606,-0.65621 l -4.333651,0.52053 v 33.26374 33.26374 l 2.682736,0.33293 c 7.103651,0.88155 28.142141,0.51521 33.922161,-0.59069 z"
     id="path37092"
     inkscape:connector-curvature="0" />
  <path
     style="opacity:1;fill:#ff0000;fill-opacity:1;fill-rule:nonzero;stroke:#ff0000;stroke-width:2.47637177;stroke-linecap:square;stroke-linejoin:round;stroke-miterlimit:4;stroke-dasharray:none;stroke-opacity:1;paint-order:fill markers stroke"
     d="m 100.70415,1099.721 c 0,-0.4833 -46.829908,-146.45916 -47.565403,-148.26849 -0.376091,-0.92519 -0.679771,-0.71653 -1.201336,0.82546 -0.383907,1.135 -5.91722,33.26593 -12.296251,71.40203 -6.379032,38.1361 -11.808758,70.3599 -12.066059,71.6084 l -0.46782,2.27 H 13.965552 c -7.2279517,0 -13.14173,-0.2081 -13.14173,-0.4626 0,-0.6026 38.649192,-221.27998 39.283922,-224.30151 0.483497,-2.3016 0.488758,-2.30322 6.699512,-2.06364 l 6.215635,0.23978 25.285181,82.68405 c 13.906847,45.47624 25.492398,82.89092 25.745658,83.14382 0.25326,0.2528 11.01585,-37.04788 23.91685,-82.89046 l 23.45638,-83.35014 h 6.21256 6.21254 l 21.37359,112.46855 c 11.75547,61.85775 21.54943,112.94225 21.76437,113.52125 0.30887,0.8321 -2.43987,1.0051 -13.11262,0.8255 l -13.50342,-0.2273 -12.68983,-73.0529 c -6.97941,-40.17918 -12.83281,-73.20779 -13.00756,-73.39696 -0.17474,-0.18917 -0.46275,-0.18917 -0.64001,0 -0.17727,0.18917 -10.70251,33.77496 -23.38943,74.63506 l -23.06714,74.2912 -3.43793,0.2538 c -1.89085,0.1396 -3.43793,0.07 -3.43793,-0.1549 z"
     id="path37094"
     inkscape:connector-curvature="0" />
  <path
     style="opacity:1;fill:#ff0000;fill-opacity:1;fill-rule:nonzero;stroke:#ff0000;stroke-width:2.47637177;stroke-linecap:square;stroke-linejoin:round;stroke-miterlimit:4;stroke-dasharray:none;stroke-opacity:1;paint-order:fill markers stroke"
     d="m 253.78946,982.63101 43.10945,-114.96241 3.64023,-0.22856 3.64023,-0.22856 39.83466,114.55439 c 21.90907,63.00493 39.83181,114.84123 39.82832,115.19173 -0.003,0.3505 -6.92233,0.5362 -15.37518,0.4127 l -15.36885,-0.2246 -6.11011,-19.811 c -3.36057,-10.896 -6.68598,-21.7611 -7.38981,-24.1446 l -1.2797,-4.3336 h -40.19496 -40.19498 l -7.84727,24.1446 -7.84727,24.1446 -15.7771,0.2239 -15.7771,0.2238 z m 76.39182,44.36749 c 0,-0.4544 -27.4573,-91.23756 -29.4248,-97.28837 -0.71447,-2.19728 -1.58542,-3.68311 -1.93543,-3.30183 -0.71799,0.78212 -33.02544,98.6951 -33.02544,100.089 0,0.6307 9.56318,0.8973 32.19283,0.8973 17.70606,0 32.19284,-0.1782 32.19284,-0.3961 z"
     id="path37096"
     inkscape:connector-curvature="0" />
  <path
     style="opacity:1;fill:#ff0000;fill-opacity:1;fill-rule:nonzero;stroke:#ff0000;stroke-width:2.47637177;stroke-linecap:square;stroke-linejoin:round;stroke-miterlimit:4;stroke-dasharray:none;stroke-opacity:1;paint-order:fill markers stroke"
     d="M 407.77426,984.05807 V 870.5577 h 14.03278 14.03277 v 61.90929 c 0,34.05012 0.27859,61.89574 0.61909,61.87919 0.3405,-0.0166 18.44897,-27.87267 40.24104,-61.90245 l 39.62195,-61.87232 15.57226,-0.007 15.57226,-0.007 -1.49356,2.27 c -16.02072,24.34914 -60.95738,94.23975 -61.20826,95.19804 -0.18752,0.71625 15.69943,29.67389 35.30432,64.35025 19.60489,34.6765 35.82954,63.5283 36.05478,64.1153 0.32571,0.8487 -2.69965,1.0671 -14.7833,1.0671 h -15.19282 l -30.433,-52.857 c -16.73816,-29.0713 -30.7066,-52.56587 -31.04098,-52.21012 -0.33439,0.35576 -6.95878,10.26372 -14.72088,22.01772 l -14.1129,21.3709 v 30.8393 30.8392 h -14.03277 -14.03278 z"
     id="path37098"
     inkscape:connector-curvature="0" />
  <path
     style="opacity:1;fill:#ff0000;fill-opacity:1;fill-rule:nonzero;stroke:#ff0000;stroke-width:2.47637177;stroke-linecap:square;stroke-linejoin:round;stroke-miterlimit:4;stroke-dasharray:none;stroke-opacity:1;paint-order:fill markers stroke"
     d="M 580.29483,984.05807 V 870.5577 h 62.32203 62.32202 v 13.20731 13.20732 h -48.28925 -48.28925 v 32.19283 32.19284 h 34.66921 34.6692 v 12.79459 12.79458 h -34.6692 -34.66921 v 41.68563 41.6856 h 48.28925 48.28925 v 13.62 13.62 h -62.32202 -62.32203 z"
     id="path37100"
     inkscape:connector-curvature="0" />
  <path
     style="opacity:1;fill:#ff0000;fill-opacity:1;fill-rule:nonzero;stroke:#ff0000;stroke-width:2.47637177;stroke-linecap:square;stroke-linejoin:round;stroke-miterlimit:4;stroke-dasharray:none;stroke-opacity:1;paint-order:fill markers stroke"
     d="M 742.08446,983.80293 V 870.04742 l 21.25553,-0.99408 c 39.54833,-1.84959 52.29248,-1.11455 67.96308,3.91991 15.54835,4.99519 26.69372,14.00625 32.83365,26.54614 4.13618,8.44752 5.73537,14.38657 6.66328,24.74603 1.23563,13.79492 -0.94857,26.79733 -6.28832,37.43404 -6.93456,13.81355 -20.17455,26.28409 -31.17616,29.36435 -2.06392,0.57786 -3.75259,1.32351 -3.75259,1.65698 0,0.33349 13.60285,23.59401 30.22855,51.69021 16.6257,28.0961 30.41243,51.5563 30.6372,52.1338 0.32387,0.8321 -2.88961,1.0034 -15.48717,0.8254 l -15.89582,-0.2245 -28.47383,-48.8032 -28.47382,-48.80323 -8.76127,-0.5295 c -4.81869,-0.29122 -12.0115,-0.75789 -15.98401,-1.03705 l -7.22275,-0.50755 v 50.04663 50.0466 h -14.03278 -14.03277 z m 67.16996,-11.30606 c 21.86025,-3.81211 30.72482,-13.64437 32.36905,-35.90259 1.54071,-20.85672 -7.09583,-33.31127 -26.56551,-38.30952 -11.22091,-2.88063 -30.01661,-3.6074 -41.82074,-1.61707 l -3.10372,0.52333 0.21462,37.65532 0.21462,37.65533 3.71455,0.49512 c 7.72884,1.03018 27.85223,0.74255 34.97713,-0.49992 z"
     id="path37102"
     inkscape:connector-curvature="0" />
  <path
     style="opacity:1;fill:#ff0000;fill-opacity:1;fill-rule:nonzero;stroke:#ff0000;stroke-width:2.47637177;stroke-linecap:square;stroke-linejoin:round;stroke-miterlimit:4;stroke-dasharray:none;stroke-opacity:1;paint-order:fill markers stroke"
     d="m 935.52342,1099.639 c -9.88057,-1.7929 -22.72649,-6.8302 -28.29062,-11.0937 l -2.00676,-1.5377 4.85731,-13.2974 c 2.67151,-7.3135 5.18876,-13.2973 5.59389,-13.2973 0.40512,0 1.72256,0.6958 2.92765,1.5463 6.72839,4.7486 20.46115,9.9479 30.9857,11.7314 19.137,3.2429 37.56459,-5.871 43.53675,-21.5323 2.3984,-6.2895 2.96801,-17.0435 1.25634,-23.7192 -4.02813,-15.7103 -10.74792,-21.7826 -41.41457,-37.42451 -9.0692,-4.62585 -19.20871,-10.28383 -22.53225,-12.5733 -11.61704,-8.00259 -19.46063,-18.76382 -23.29119,-31.95501 -2.46369,-8.48412 -3.13932,-26.74292 -1.3088,-35.37026 3.74328,-17.64235 17.53844,-33.84887 34.35734,-40.36294 7.66416,-2.96837 10.77788,-3.56988 21.04916,-4.06626 20.09038,-0.97091 41.88023,3.47516 49.71923,10.14486 l 1.8428,1.56786 -3.8003,11.96913 c -2.0902,6.58302 -4.0721,12.26741 -4.4042,12.63198 -0.3321,0.36456 -1.8706,-0.0846 -3.4188,-0.99805 -9.70887,-5.72837 -25.31446,-10.14282 -35.73304,-10.10802 -15.00151,0.0501 -25.00944,5.92879 -30.24581,17.76648 -3.76893,8.52029 -3.39473,22.619 0.84151,31.70545 4.83099,10.36217 10.52671,14.67359 38.40593,29.07171 24.01638,12.40316 31.00181,17.59958 38.27321,28.47117 10.883,16.27151 13.8376,43.77121 6.7235,62.57961 -0.9966,2.6349 -3.6102,7.4792 -5.8079,10.7651 -9.7195,14.5319 -24.95394,24.1428 -43.35562,27.3518 -8.6965,1.5165 -26.49213,1.5335 -34.76046,0.033 z"
     id="path37104"
     inkscape:connector-curvature="0" />
</svg>
